<svg xmlns="http://www.w3.org/2000/svg" viewBox="-1 -1 10 10" shape-rendering="crispEdges"><rect x="-1" y="-1" width="10" height="10" fill="#d6d6d6"/><rect x="1" y="0" width="1" height="1" fill="#020202"/><rect x="6" y="0" width="1" height="1" fill="#020202"/><rect x="3" y="0" width="1" height="1" fill="#020202"/><rect x="4" y="0" width="1" height="1" fill="#020202"/><rect x="0" y="2" width="1" height="1" fill="#020202"/><rect x="7" y="2" width="1" height="1" fill="#020202"/><rect x="1" y="2" width="1" height="1" fill="#020202"/><rect x="6" y="2" width="1" height="1" fill="#020202"/><rect x="3" y="2" width="1" height="1" fill="#020202"/><rect x="4" y="2" width="1" height="1" fill="#020202"/><rect x="0" y="4" width="1" height="1" fill="#bbbbbb"/><rect x="7" y="4" width="1" height="1" fill="#bbbbbb"/><rect x="3" y="4" width="1" height="1" fill="#020202"/><rect x="4" y="4" width="1" height="1" fill="#020202"/><rect x="1" y="5" width="1" height="1" fill="#020202"/><rect x="6" y="5" width="1" height="1" fill="#020202"/><rect x="3" y="6" width="1" height="1" fill="#020202"/><rect x="4" y="6" width="1" height="1" fill="#020202"/><rect x="3" y="7" width="1" height="1" fill="#020202"/><rect x="4" y="7" width="1" height="1" fill="#020202"/></svg>
